<svg width="110" height="18" viewBox="0 0 110 18" fill="none" xmlns="http://www.w3.org/2000/svg">
<g id="logo">
<path d="M6.23868 2.78804C8.66826 2.78804 10.4733 3.40761 11.6538 4.64674C12.8342 5.88587 13.4245 7.67935 13.4245 10.0272C13.4245 11.5598 13.1362 12.8967 12.5597 14.038C11.9832 15.1793 11.1459 16.0679 10.0478 16.7038C8.94966 17.3397 7.61819 17.6576 6.05337 17.6576C5.82002 17.6576 5.51118 17.6495 5.12684 17.6332C4.7425 17.6168 4.34443 17.6087 3.93263 17.6087C3.52084 17.5924 3.14336 17.5842 2.8002 17.5842C2.27859 17.5842 1.75699 17.5924 1.23538 17.6087C0.727503 17.6087 0.315709 17.625 0 17.6576V17.1685C0.439247 17.1359 0.768682 17.0707 0.988306 16.9728C1.20793 16.875 1.35206 16.6793 1.42069 16.3859C1.50305 16.0924 1.54423 15.6522 1.54423 15.0652V5.38043C1.54423 4.77717 1.50305 4.3288 1.42069 4.03533C1.35206 3.74185 1.20793 3.5462 0.988306 3.44837C0.768682 3.35054 0.439247 3.29348 0 3.27718V2.78804C0.315709 2.80435 0.727503 2.8288 1.23538 2.86141C1.75699 2.87772 2.26487 2.87772 2.75902 2.86141C3.11591 2.84511 3.50711 2.83696 3.93263 2.83696C4.35815 2.82065 4.77681 2.8125 5.1886 2.8125C5.6004 2.7962 5.95042 2.78804 6.23868 2.78804ZM5.97101 3.22826C5.43568 3.22826 5.08566 3.36685 4.92094 3.64402C4.76995 3.9212 4.69445 4.4837 4.69445 5.33152V15.1141C4.69445 15.962 4.77681 16.5245 4.94153 16.8016C5.11997 17.0788 5.47 17.2174 5.9916 17.2174C7.07599 17.2174 7.91331 16.9484 8.50355 16.4103C9.10751 15.856 9.52617 15.0571 9.75952 14.0136C10.0066 12.9538 10.1301 11.6576 10.1301 10.125C10.1301 8.57609 9.99973 7.2962 9.73893 6.28533C9.47813 5.25815 9.04574 4.49185 8.44178 3.98641C7.83781 3.48098 7.01422 3.22826 5.97101 3.22826Z" fill="#1E1E1E"/>
<path d="M25.3192 2.78804C25.2643 3.3587 25.2231 3.9212 25.1957 4.47554C25.182 5.01359 25.1751 5.42935 25.1751 5.72283C25.1751 6.0163 25.182 6.30163 25.1957 6.5788C25.2094 6.83967 25.2231 7.05978 25.2369 7.23913H24.7633C24.5574 5.78804 24.1936 4.77717 23.672 4.20652C23.1504 3.63587 22.4573 3.35054 21.5925 3.35054H20.8307C20.5012 3.35054 20.2404 3.3913 20.0483 3.47283C19.8698 3.53804 19.7394 3.68478 19.6571 3.91304C19.5747 4.125 19.5335 4.46739 19.5335 4.94022V15.5054C19.5335 15.962 19.5747 16.3043 19.6571 16.5326C19.7394 16.7609 19.8698 16.9158 20.0483 16.9973C20.2404 17.0625 20.5012 17.0951 20.8307 17.0951H21.716C22.3474 17.0951 22.8965 16.9565 23.3632 16.6793C23.8299 16.4022 24.2142 15.9457 24.5162 15.3098C24.8182 14.6576 25.0378 13.7935 25.1751 12.7174H25.6487C25.6075 13.1739 25.5869 13.7609 25.5869 14.4783C25.5869 14.788 25.5938 15.2446 25.6075 15.8478C25.6349 16.4348 25.6761 17.038 25.731 17.6576C25.0584 17.625 24.3035 17.6087 23.4661 17.6087C22.6288 17.5924 21.8807 17.5842 21.2219 17.5842C20.7826 17.5842 20.1924 17.5842 19.4512 17.5842C18.7237 17.5842 17.9481 17.5924 17.1245 17.6087C16.3147 17.6087 15.5528 17.625 14.8391 17.6576V17.1685C15.2783 17.1359 15.6077 17.0707 15.8274 16.9728C16.047 16.875 16.1911 16.6793 16.2598 16.3859C16.3421 16.0924 16.3833 15.6522 16.3833 15.0652V5.38043C16.3833 4.77717 16.3421 4.33696 16.2598 4.05978C16.1911 3.7663 16.047 3.57065 15.8274 3.47283C15.6077 3.3587 15.2783 3.29348 14.8391 3.27718V2.78804C15.5528 2.80435 16.3147 2.82065 17.1245 2.83696C17.9481 2.85326 18.7237 2.86141 19.4512 2.86141C20.1924 2.86141 20.7826 2.86141 21.2219 2.86141C21.8258 2.86141 22.5053 2.86141 23.2602 2.86141C24.0289 2.84511 24.7153 2.82065 25.3192 2.78804ZM22.2102 9.92935C22.2102 9.92935 22.2102 10.0109 22.2102 10.1739C22.2102 10.337 22.2102 10.4185 22.2102 10.4185H18.9158C18.9158 10.4185 18.9158 10.337 18.9158 10.1739C18.9158 10.0109 18.9158 9.92935 18.9158 9.92935H22.2102ZM23.0544 7.28804C22.9994 8.03804 22.972 8.625 22.972 9.04891C22.9857 9.47283 22.9926 9.84783 22.9926 10.1739C22.9926 10.5 22.9994 10.875 23.0132 11.2989C23.0269 11.7228 23.0612 12.3098 23.1161 13.0598H22.6426C22.6014 12.6033 22.4984 12.1793 22.3337 11.788C22.1827 11.3804 21.9562 11.0543 21.6543 10.8098C21.366 10.5489 20.9817 10.4185 20.5012 10.4185V9.92935C20.9954 9.92935 21.3797 9.78261 21.6543 9.48913C21.9425 9.17935 22.1553 8.82065 22.2925 8.41304C22.4435 8.00543 22.5396 7.63043 22.5808 7.28804H23.0544Z" fill="#1E1E1E"/>
<path d="M33.6246 2.78804V3.27718C33.1991 3.29348 32.8696 3.3587 32.6363 3.47283C32.4167 3.57065 32.2657 3.7663 32.1833 4.05978C32.1147 4.33696 32.0804 4.77717 32.0804 5.38043V15.3587C32.0804 15.8641 32.1215 16.2391 32.2039 16.4837C32.2863 16.7283 32.4167 16.8913 32.5951 16.9728C32.7873 17.0543 33.0481 17.0951 33.3775 17.0951H34.1805C34.7433 17.0951 35.2649 16.9402 35.7453 16.6304C36.2258 16.3043 36.6376 15.7826 36.9807 15.0652C37.3376 14.3478 37.5847 13.3859 37.7219 12.1793H38.1955C38.1543 12.7011 38.1337 13.3696 38.1337 14.1848C38.1337 14.5109 38.1406 15 38.1543 15.6522C38.1818 16.3043 38.223 16.9728 38.2779 17.6576C37.6053 17.625 36.8503 17.6087 36.013 17.6087C35.1757 17.5924 34.4276 17.5842 33.7687 17.5842C33.3295 17.5842 32.7392 17.5842 31.998 17.5842C31.2705 17.5842 30.495 17.5924 29.6714 17.6087C28.8615 17.6087 28.0997 17.625 27.3859 17.6576V17.1685C27.8252 17.1359 28.1546 17.0707 28.3742 16.9728C28.5938 16.875 28.738 16.6793 28.8066 16.3859C28.889 16.0924 28.9301 15.6522 28.9301 15.0652V5.38043C28.9301 4.77717 28.889 4.33696 28.8066 4.05978C28.738 3.7663 28.5938 3.57065 28.3742 3.47283C28.1546 3.3587 27.8252 3.29348 27.3859 3.27718V2.78804C27.7428 2.80435 28.2095 2.82065 28.786 2.83696C29.3625 2.85326 29.9802 2.86141 30.6391 2.86141C31.2019 2.86141 31.7509 2.85326 32.2863 2.83696C32.8216 2.82065 33.2677 2.80435 33.6246 2.78804Z" fill="#1E1E1E"/>
<path d="M45.7492 2.78804V3.27718C45.3237 3.29348 44.9942 3.3587 44.7609 3.47283C44.5413 3.57065 44.3903 3.7663 44.3079 4.05978C44.2393 4.33696 44.205 4.77717 44.205 5.38043V15.3587C44.205 15.8641 44.2461 16.2391 44.3285 16.4837C44.4109 16.7283 44.5413 16.8913 44.7197 16.9728C44.9119 17.0543 45.1727 17.0951 45.5021 17.0951H46.3051C46.8679 17.0951 47.3895 16.9402 47.8699 16.6304C48.3504 16.3043 48.7621 15.7826 49.1053 15.0652C49.4622 14.3478 49.7093 13.3859 49.8465 12.1793H50.3201C50.2789 12.7011 50.2583 13.3696 50.2583 14.1848C50.2583 14.5109 50.2652 15 50.2789 15.6522C50.3064 16.3043 50.3476 16.9728 50.4025 17.6576C49.7299 17.625 48.9749 17.6087 48.1376 17.6087C47.3003 17.5924 46.5522 17.5842 45.8933 17.5842C45.4541 17.5842 44.8638 17.5842 44.1226 17.5842C43.3951 17.5842 42.6196 17.5924 41.796 17.6087C40.9861 17.6087 40.2243 17.625 39.5105 17.6576V17.1685C39.9498 17.1359 40.2792 17.0707 40.4988 16.9728C40.7184 16.875 40.8626 16.6793 40.9312 16.3859C41.0136 16.0924 41.0547 15.6522 41.0547 15.0652V5.38043C41.0547 4.77717 41.0136 4.33696 40.9312 4.05978C40.8626 3.7663 40.7184 3.57065 40.4988 3.47283C40.2792 3.3587 39.9498 3.29348 39.5105 3.27718V2.78804C39.8674 2.80435 40.3341 2.82065 40.9106 2.83696C41.4871 2.85326 42.1048 2.86141 42.7637 2.86141C43.3265 2.86141 43.8755 2.85326 44.4109 2.83696C44.9462 2.82065 45.3923 2.80435 45.7492 2.78804Z" fill="#1E1E1E"/>
<path d="M51.9576 0C52.3008 0 52.5959 0.0733696 52.843 0.220109C53.0901 0.366848 53.2822 0.578805 53.4195 0.855979C53.5705 1.08424 53.6803 1.38587 53.7489 1.76087C53.8313 2.13587 53.8725 2.51087 53.8725 2.88587C53.8725 3.70109 53.694 4.45924 53.3371 5.16033C52.994 5.84511 52.4518 6.3913 51.7105 6.79891L51.5252 6.3587C51.9096 6.16304 52.2527 5.86141 52.5547 5.4538C52.8567 5.0462 53.0352 4.63043 53.0901 4.20652C53.1587 3.84783 53.1587 3.50544 53.0901 3.17935C52.7881 3.57065 52.39 3.7663 51.8959 3.7663C51.4154 3.7663 51.0242 3.60326 50.7222 3.27718C50.4203 2.93478 50.2693 2.47011 50.2693 1.88315C50.2693 1.3125 50.4271 0.855979 50.7428 0.513588C51.0723 0.171196 51.4772 0 51.9576 0Z" fill="#1E1E1E"/>
<path d="M65.3321 2.73913L70.2324 15.6033C70.4658 16.1739 70.6854 16.5734 70.8913 16.8016C71.1109 17.0299 71.3237 17.1522 71.5296 17.1685V17.6576C71.2139 17.625 70.8089 17.6087 70.3148 17.6087C69.8206 17.5924 69.3265 17.5842 68.8323 17.5842C68.1735 17.5842 67.5489 17.5924 66.9587 17.6087C66.3822 17.6087 65.9223 17.625 65.5792 17.6576V17.1685C66.1969 17.1359 66.6018 16.981 66.794 16.7038C66.9999 16.4266 66.9518 15.8967 66.6498 15.1141L63.3761 6.23641L63.7879 5.60054L61.0494 12.9864C60.7474 13.7853 60.5621 14.4538 60.4935 14.9918C60.4249 15.5136 60.4523 15.9293 60.5759 16.2391C60.6994 16.5489 60.9053 16.7772 61.1936 16.9239C61.4818 17.0543 61.8387 17.1359 62.2642 17.1685V17.6576C61.8661 17.625 61.4749 17.6087 61.0906 17.6087C60.72 17.5924 60.3219 17.5842 59.8964 17.5842C59.6356 17.5842 59.3405 17.5924 59.011 17.6087C58.6816 17.6087 58.4208 17.625 58.2286 17.6576V17.1685C58.5718 17.0707 58.8806 16.8179 59.1552 16.4103C59.4297 15.9864 59.7248 15.3668 60.0405 14.5516L64.385 2.73913C64.5497 2.75544 64.7075 2.76359 64.8585 2.76359C65.0232 2.76359 65.1811 2.75544 65.3321 2.73913ZM66.8351 11.837V12.3261H61.1112L61.3171 11.837H66.8351Z" fill="#1E1E1E"/>
<path d="M72.0639 2.78804C72.3797 2.80435 72.7915 2.82065 73.2993 2.83696C73.8209 2.85326 74.3288 2.86141 74.823 2.86141C75.5093 2.86141 76.1613 2.85326 76.779 2.83696C77.3967 2.82065 77.8359 2.8125 78.0967 2.8125C80.0184 2.8125 81.4117 3.15489 82.2764 3.83968C83.1549 4.52446 83.5942 5.42935 83.5942 6.55435C83.5942 7.02717 83.505 7.5 83.3265 7.97283C83.1481 8.44565 82.8461 8.88587 82.4206 9.29348C81.9951 9.68478 81.4117 10.019 80.6704 10.2962C79.9292 10.5571 78.989 10.712 77.8497 10.7609L75.5024 10.8587C75.5024 10.8587 75.5024 10.7772 75.5024 10.6141C75.5024 10.4511 75.5024 10.3696 75.5024 10.3696H77.6438C78.385 10.3696 78.9409 10.2147 79.3115 9.90489C79.6959 9.5788 79.9567 9.14674 80.0939 8.6087C80.2312 8.07065 80.2998 7.47554 80.2998 6.82337C80.2998 5.68207 80.1145 4.80978 79.7439 4.20652C79.387 3.58696 78.7487 3.27718 77.8291 3.27718C77.3898 3.27718 77.1016 3.41576 76.9643 3.69293C76.827 3.97011 76.7584 4.53261 76.7584 5.38043V15.0652C76.7584 15.6522 76.7927 16.0924 76.8614 16.3859C76.9437 16.6793 77.0947 16.875 77.3143 16.9728C77.5477 17.0707 77.8771 17.1359 78.3026 17.1685V17.6576C77.9183 17.625 77.4173 17.6087 76.7996 17.6087C76.1956 17.5924 75.5779 17.5842 74.9465 17.5842C74.37 17.5842 73.8209 17.5924 73.2993 17.6087C72.7915 17.6087 72.3797 17.625 72.0639 17.6576V17.1685C72.5032 17.1359 72.8326 17.0707 73.0523 16.9728C73.2719 16.875 73.416 16.6793 73.4846 16.3859C73.567 16.0924 73.6082 15.6522 73.6082 15.0652V5.38043C73.6082 4.77717 73.567 4.3288 73.4846 4.03533C73.416 3.74185 73.2719 3.5462 73.0523 3.44837C72.8326 3.35054 72.5032 3.29348 72.0639 3.27718V2.78804ZM76.0995 10.5652C76.8408 10.5978 77.4035 10.6223 77.7879 10.6386C78.186 10.6549 78.5017 10.6712 78.735 10.6875C78.9684 10.6875 79.2086 10.712 79.4557 10.7609C80.3479 10.875 81.1028 11.1196 81.7205 11.4946C82.3382 11.8533 82.7363 12.4891 82.9147 13.4022L83.3471 15.5788C83.4432 16.0516 83.5599 16.3859 83.6971 16.5815C83.8344 16.7609 84.006 16.8505 84.2119 16.8505C84.3629 16.8505 84.5139 16.8016 84.6648 16.7038C84.8296 16.5897 84.9737 16.4592 85.0972 16.3125L85.3855 16.6304C85.0835 17.038 84.7266 17.3723 84.3148 17.6332C83.9168 17.8777 83.3883 18 82.7294 18C81.9058 18 81.2881 17.8043 80.8764 17.413C80.4783 17.0217 80.2175 16.5571 80.0939 16.019L79.4968 13.1332C79.3321 12.1712 79.085 11.5516 78.7556 11.2745C78.4399 10.9973 78.0006 10.8587 77.4379 10.8587H76.0995V10.5652Z" fill="#1E1E1E"/>
<path d="M97.823 2.78804C97.7681 3.44022 97.7269 4.07609 97.6994 4.69565C97.6857 5.31522 97.6788 5.78804 97.6788 6.11413C97.6788 6.53804 97.6857 6.9375 97.6994 7.3125C97.7131 7.6875 97.7269 8.00543 97.7406 8.2663H97.267C97.0886 7.05978 96.8621 6.09783 96.5876 5.38043C96.313 4.64674 95.963 4.125 95.5375 3.81522C95.112 3.50543 94.5766 3.35054 93.9315 3.35054H93.2932V14.8207C93.2932 15.4728 93.3413 15.962 93.4373 16.288C93.5472 16.6141 93.7531 16.8342 94.055 16.9484C94.357 17.0625 94.7963 17.1359 95.3728 17.1685V17.6576C95.1257 17.6413 94.7825 17.6332 94.3433 17.6332C93.9041 17.6168 93.4442 17.6087 92.9638 17.6087C92.4834 17.5924 92.051 17.5842 91.6666 17.5842C91.2548 17.5842 90.8087 17.5924 90.3283 17.6087C89.8616 17.6087 89.4224 17.6168 89.0106 17.6332C88.5988 17.6332 88.2831 17.6413 88.0634 17.6576V17.1685C88.6399 17.1359 89.0792 17.0625 89.3812 16.9484C89.6832 16.8342 89.8822 16.6141 89.9783 16.288C90.0881 15.962 90.143 15.4728 90.143 14.8207V3.35054H89.5047C88.8596 3.35054 88.3242 3.50543 87.8987 3.81522C87.4732 4.125 87.1232 4.64674 86.8486 5.38043C86.5878 6.09783 86.3614 7.05978 86.1692 8.2663H85.6956C85.7231 8.00543 85.7368 7.6875 85.7368 7.3125C85.7505 6.9375 85.7574 6.53804 85.7574 6.11413C85.7574 5.78804 85.7437 5.31522 85.7162 4.69565C85.7025 4.07609 85.6682 3.44022 85.6133 2.78804C86.2172 2.80435 86.8692 2.82065 87.5693 2.83696C88.2831 2.85326 88.9968 2.86141 89.7106 2.86141C90.4244 2.86141 91.0764 2.86141 91.6666 2.86141C92.2706 2.86141 92.9295 2.86141 93.6432 2.86141C94.3708 2.86141 95.0983 2.85326 95.8258 2.83696C96.5533 2.82065 97.219 2.80435 97.823 2.78804Z" fill="#1E1E1E"/>
<path d="M109.588 2.78804C109.533 3.3587 109.492 3.9212 109.465 4.47554C109.451 5.01359 109.444 5.42935 109.444 5.72283C109.444 6.0163 109.451 6.30163 109.465 6.5788C109.478 6.83967 109.492 7.05978 109.506 7.23913H109.032C108.826 5.78804 108.463 4.77717 107.941 4.20652C107.419 3.63587 106.726 3.35054 105.861 3.35054H105.1C104.77 3.35054 104.509 3.3913 104.317 3.47283C104.139 3.53804 104.008 3.68478 103.926 3.91304C103.844 4.125 103.802 4.46739 103.802 4.94022V15.5054C103.802 15.962 103.844 16.3043 103.926 16.5326C104.008 16.7609 104.139 16.9158 104.317 16.9973C104.509 17.0625 104.77 17.0951 105.1 17.0951H105.985C106.616 17.0951 107.165 16.9565 107.632 16.6793C108.099 16.4022 108.483 15.9457 108.785 15.3098C109.087 14.6576 109.307 13.7935 109.444 12.7174H109.918C109.876 13.1739 109.856 13.7609 109.856 14.4783C109.856 14.788 109.863 15.2446 109.876 15.8478C109.904 16.4348 109.945 17.038 110 17.6576C109.327 17.625 108.572 17.6087 107.735 17.6087C106.898 17.5924 106.15 17.5842 105.491 17.5842C105.052 17.5842 104.461 17.5842 103.72 17.5842C102.993 17.5842 102.217 17.5924 101.394 17.6087C100.584 17.6087 99.8218 17.625 99.108 17.6576V17.1685C99.5473 17.1359 99.8767 17.0707 100.096 16.9728C100.316 16.875 100.46 16.6793 100.529 16.3859C100.611 16.0924 100.652 15.6522 100.652 15.0652V5.38043C100.652 4.77717 100.611 4.33696 100.529 4.05978C100.46 3.7663 100.316 3.57065 100.096 3.47283C99.8767 3.3587 99.5473 3.29348 99.108 3.27718V2.78804C99.8218 2.80435 100.584 2.82065 101.394 2.83696C102.217 2.85326 102.993 2.86141 103.72 2.86141C104.461 2.86141 105.052 2.86141 105.491 2.86141C106.095 2.86141 106.774 2.86141 107.529 2.86141C108.298 2.84511 108.984 2.82065 109.588 2.78804ZM106.479 9.92935C106.479 9.92935 106.479 10.0109 106.479 10.1739C106.479 10.337 106.479 10.4185 106.479 10.4185H103.185C103.185 10.4185 103.185 10.337 103.185 10.1739C103.185 10.0109 103.185 9.92935 103.185 9.92935H106.479ZM107.323 7.28804C107.268 8.03804 107.241 8.625 107.241 9.04891C107.255 9.47283 107.262 9.84783 107.262 10.1739C107.262 10.5 107.268 10.875 107.282 11.2989C107.296 11.7228 107.33 12.3098 107.385 13.0598H106.912C106.87 12.6033 106.767 12.1793 106.603 11.788C106.452 11.3804 106.225 11.0543 105.923 10.8098C105.635 10.5489 105.251 10.4185 104.77 10.4185V9.92935C105.264 9.92935 105.649 9.78261 105.923 9.48913C106.211 9.17935 106.424 8.82065 106.562 8.41304C106.713 8.00543 106.809 7.63043 106.85 7.28804H107.323Z" fill="#1E1E1E"/>
<path d="M1.3654 9.50543H1.47979V10.8641H1.3654V9.50543Z" fill="#1E1E1E"/>
</g>
</svg>
