<svg width="20" height="20" viewBox="0 0 20 20" fill="none" xmlns="http://www.w3.org/2000/svg">
<g id="Messages/mail">
<path id="Icon" d="M2.4665 4.20801L8.6842 9.49737C9.26198 9.98888 10.071 9.98888 10.6488 9.49737L16.8665 4.20801M4.2265 17.333H15.1065C16.0026 17.333 16.4506 17.333 16.7929 17.1423C17.0939 16.9745 17.3387 16.7068 17.4921 16.3775C17.6665 16.0031 17.6665 15.5131 17.6665 14.533V6.13301C17.6665 5.15292 17.6665 4.66287 17.4921 4.28852C17.3387 3.95924 17.0939 3.69152 16.7929 3.52375C16.4506 3.33301 16.0026 3.33301 15.1065 3.33301H4.2265C3.33042 3.33301 2.88238 3.33301 2.54012 3.52375C2.23906 3.69152 1.99429 3.95924 1.84089 4.28852C1.6665 4.66287 1.6665 5.15292 1.6665 6.13301V14.533C1.6665 15.5131 1.6665 16.0031 1.84089 16.3775C1.99429 16.7068 2.23906 16.9745 2.54012 17.1423C2.88238 17.333 3.33042 17.333 4.2265 17.333Z" stroke="white"/>
</g>
</svg>
