<svg width="20" height="20" viewBox="0 0 20 20" fill="none" xmlns="http://www.w3.org/2000/svg">
<g id="Technology/phone">
<path id="Icon" d="M7.48371 8.12897C8.01366 9.23275 8.73609 10.2673 9.65101 11.1822C10.5659 12.0971 11.6004 12.8195 12.7042 13.3495C12.7991 13.395 12.8466 13.4178 12.9067 13.4353C13.1202 13.4976 13.3823 13.4529 13.5631 13.3234C13.6139 13.287 13.6575 13.2435 13.7445 13.1564C14.0107 12.8902 14.1438 12.7571 14.2776 12.6701C14.7824 12.3419 15.4331 12.3419 15.9378 12.6701C16.0717 12.7571 16.2048 12.8902 16.471 13.1564L16.6193 13.3048C17.024 13.7095 17.2263 13.9118 17.3362 14.1291C17.5548 14.5612 17.5548 15.0716 17.3362 15.5038C17.2263 15.7211 17.024 15.9234 16.6193 16.328L16.4993 16.4481C16.096 16.8513 15.8944 17.053 15.6203 17.207C15.3161 17.3778 14.8436 17.5007 14.4947 17.4997C14.1803 17.4987 13.9654 17.4377 13.5356 17.3158C11.2259 16.6602 9.04643 15.4233 7.22817 13.605C5.4099 11.7867 4.17298 9.60726 3.51742 7.29756C3.39543 6.86777 3.33444 6.65288 3.3335 6.33845C3.33246 5.98955 3.45533 5.51709 3.62621 5.2129C3.78021 4.93876 3.98184 4.73713 4.38511 4.33386L4.50514 4.21383C4.90979 3.80918 5.11212 3.60685 5.32941 3.49694C5.76157 3.27836 6.27192 3.27836 6.70408 3.49694C6.92138 3.60685 7.1237 3.80918 7.52836 4.21383L7.67673 4.36221C7.94293 4.62841 8.07603 4.76151 8.16305 4.89535C8.49122 5.40009 8.49122 6.05079 8.16305 6.55553C8.07603 6.68938 7.94293 6.82248 7.67674 7.08867C7.5897 7.17571 7.54618 7.21924 7.50975 7.27011C7.3803 7.45089 7.3356 7.71302 7.39783 7.92649C7.41534 7.98656 7.43813 8.03403 7.48371 8.12897Z" stroke="white" stroke-linecap="round" stroke-linejoin="round"/>
</g>
</svg>
