<svg width="25" height="24" viewBox="0 0 25 24" fill="none" xmlns="http://www.w3.org/2000/svg">
<path id="Star 1" d="M11.3824 0.927052C11.6818 0.00574112 12.9852 0.00573993 13.2846 0.927051L15.4767 7.67376C15.6106 8.08578 15.9945 8.36475 16.4277 8.36475H23.5217C24.4904 8.36475 24.8932 9.60436 24.1094 10.1738L18.3704 14.3435C18.0199 14.5981 17.8732 15.0495 18.0071 15.4615L20.1992 22.2082C20.4986 23.1295 19.4441 23.8956 18.6604 23.3262L12.9213 19.1565C12.5708 18.9019 12.0962 18.9019 11.7457 19.1565L6.00662 23.3262C5.2229 23.8956 4.16842 23.1295 4.46777 22.2082L6.65991 15.4615C6.79379 15.0495 6.64713 14.5981 6.29664 14.3435L0.557547 10.1738C-0.226167 9.60436 0.176608 8.36475 1.14533 8.36475H8.23924C8.67247 8.36475 9.05643 8.08578 9.1903 7.67376L11.3824 0.927052Z" fill="#FFD600"/>
</svg>
