<svg width="61" height="60" viewBox="0 0 61 60" fill="none" xmlns="http://www.w3.org/2000/svg">
<g id="Vector">
<path d="M46.3596 29.7767C46.1611 29.3598 45.8132 29.0495 45.3794 28.9023C44.9526 28.7557 44.4971 28.789 44.0972 28.9922L40.3133 30.9121C39.4934 31.3284 39.1506 32.3499 39.5511 33.1899L41.4119 37.0945C41.6099 37.5096 41.9578 37.8205 42.3903 37.9677C42.5666 38.0278 42.7474 38.0581 42.9276 38.0581C43.184 38.0581 43.4386 37.9969 43.6738 37.8778L47.4576 35.9584C48.2776 35.5416 48.6197 34.5201 48.2198 33.6801L46.3596 29.7767ZM46.779 34.6197L42.9957 36.5396C42.9459 36.5642 42.9019 36.5562 42.8738 36.5476C42.8469 36.5379 42.7966 36.5121 42.7657 36.448L40.9044 32.5435C40.8546 32.4387 40.8964 32.2984 40.9919 32.2503L44.7752 30.331C44.8004 30.3184 44.8239 30.3138 44.8439 30.3138C44.8645 30.3138 44.8822 30.3184 44.8971 30.3229C44.924 30.3321 44.9743 30.3579 45.0058 30.4231L46.8654 34.326C46.9163 34.4313 46.8746 34.5716 46.779 34.6197Z" fill="#1E1E1E"/>
<path d="M43.1708 24.3949C43.6257 24.3949 44.0503 24.2145 44.3672 23.887L47.3489 20.811C47.9903 20.1491 47.9915 19.0709 47.3489 18.4078L44.3672 15.3312C43.7333 14.6768 42.6118 14.6762 41.9744 15.3312L38.9921 18.4084C38.3507 19.0709 38.3513 20.1491 38.9933 20.811L41.9738 23.8864C42.2919 24.2145 42.7165 24.3949 43.1708 24.3949ZM40.0695 19.4528L43.0512 16.3768C43.093 16.3344 43.1393 16.3247 43.1708 16.3247C43.2028 16.3247 43.2492 16.3344 43.291 16.3768L46.2715 19.4522C46.3516 19.5347 46.3516 19.6835 46.2721 19.7654L43.2898 22.8426C43.2086 22.9262 43.1353 22.929 43.0512 22.842L40.0695 19.7654C39.9906 19.6835 39.9906 19.5347 40.0695 19.4528Z" fill="#1E1E1E"/>
<path d="M55.5146 22.7767L51.6226 21.1047C51.21 20.9272 50.7546 20.9249 50.3392 21.0961C49.9157 21.2702 49.5873 21.6023 49.4145 22.0312L47.7929 26.0474C47.445 26.9114 47.8502 27.9106 48.6941 28.2736L52.5861 29.945C52.7967 30.0355 53.017 30.0802 53.2384 30.0802C53.453 30.0802 53.6676 30.0378 53.8724 29.953C54.2953 29.779 54.6231 29.4469 54.7948 29.0186L56.4152 25.003C56.7654 24.1383 56.3603 23.1392 55.5146 22.7767ZM55.0254 24.4412L53.4038 28.458C53.3763 28.5256 53.3266 28.5548 53.2997 28.5656C53.2711 28.5777 53.227 28.5863 53.1784 28.5656L49.2863 26.8942C49.1874 26.8519 49.1399 26.7185 49.1833 26.6091L50.8044 22.5935C50.8324 22.5242 50.8827 22.4956 50.9096 22.4841C50.9262 22.4772 50.9474 22.4715 50.9714 22.4715C50.9897 22.4715 51.0098 22.4755 51.0309 22.4841L54.923 24.1561C55.0202 24.1979 55.0683 24.333 55.0254 24.4412Z" fill="#1E1E1E"/>
<path d="M57.963 39.5246C60.6008 36.3174 61.3715 31.8203 60.2523 26.1562C57.3021 11.2292 58.1621 0.919588 58.1707 0.816521C58.189 0.606951 58.1186 0.399099 57.9767 0.244498C57.8348 0.0887522 57.634 0 57.424 0H36.3251C36.1146 0 35.9137 0.0887522 35.7718 0.244498C35.6299 0.399672 35.5596 0.606951 35.5779 0.817666C35.5865 0.919588 36.4499 11.2103 33.4963 26.1562C32.3771 31.8203 33.1478 36.3174 35.7856 39.5246C39.0619 43.5081 44.2002 44.2645 46.1244 44.4082V58.4992H40.3133C39.899 58.4992 39.5637 58.8348 39.5637 59.2499C39.5637 59.6645 39.899 60 40.3133 60H53.4353C53.8495 60 54.1854 59.6645 54.1854 59.2499C54.1854 58.8348 53.8495 58.4992 53.4353 58.4992H47.6241V44.4082C49.5484 44.2645 54.6866 43.5081 57.963 39.5246ZM37.1233 1.50135H56.6258C56.5634 2.71353 56.4862 5.23295 56.6344 8.76071H37.1142C37.2624 5.23295 37.1851 2.71353 37.1233 1.50135ZM46.8751 42.9401H46.8746C46.8734 42.9401 46.8734 42.9401 46.8729 42.9401C46.7933 42.9401 40.501 42.8954 36.9437 38.5712C34.6051 35.7271 33.9403 31.6485 34.9685 26.4476C36.2239 20.093 36.7978 14.5571 37.0404 10.2621H56.7082C56.9508 14.5571 57.5247 20.093 58.7801 26.4476C59.8072 31.6433 59.1451 35.7191 56.8123 38.562C53.2653 42.8845 46.945 42.9401 46.8751 42.9401Z" fill="#1E1E1E"/>
<path d="M18.5662 38.0581C18.7458 38.0581 18.9261 38.0278 19.1017 37.9688C19.5349 37.8211 19.8828 37.5113 20.0819 37.0945L21.9415 33.1905C22.3426 32.3505 22.0004 31.3284 21.1793 30.9121L17.3966 28.9922C16.9961 28.789 16.5406 28.7563 16.1138 28.9023C15.6812 29.0495 15.3333 29.3604 15.1359 29.7767L13.2746 33.6812C12.8757 34.5201 13.2179 35.5416 14.0379 35.9584L17.82 37.8778C18.0552 37.9969 18.3098 38.0581 18.5662 38.0581ZM14.6289 34.3265L16.4903 30.4226C16.5206 30.3573 16.5704 30.3321 16.5978 30.3229C16.6253 30.3138 16.6716 30.3063 16.7186 30.331L20.5013 32.2503C20.5968 32.2984 20.6375 32.4381 20.5877 32.5435L18.7281 36.4469C18.6972 36.5121 18.6468 36.5379 18.6194 36.5476C18.5776 36.5614 18.537 36.5585 18.4981 36.5396L14.7159 34.6197C14.6209 34.5716 14.5792 34.4313 14.6289 34.3265Z" fill="#1E1E1E"/>
<path d="M17.126 23.8864C17.4435 24.2145 17.8687 24.3949 18.323 24.3949C18.7773 24.3949 19.2019 24.2145 19.5194 23.887L22.4994 20.811C23.1408 20.1491 23.1419 19.0709 22.4994 18.4078L19.5194 15.3312C18.8837 14.6762 17.7622 14.6768 17.1265 15.3312L14.1454 18.4084C13.504 19.0709 13.5046 20.1491 14.1466 20.811L17.126 23.8864ZM15.2229 19.4528L18.2028 16.3768C18.2446 16.3344 18.2909 16.3247 18.323 16.3247C18.3544 16.3247 18.4008 16.3344 18.4426 16.3768L21.4219 19.4522C21.5021 19.5347 21.5021 19.6835 21.4225 19.7654L18.442 22.8426C18.3596 22.929 18.2858 22.9273 18.2028 22.842L15.2229 19.7654C15.1439 19.6835 15.1439 19.5347 15.2229 19.4528Z" fill="#1E1E1E"/>
<path d="M13.7026 26.0468L12.0827 22.0312C11.9093 21.6029 11.5815 21.2714 11.158 21.0967C10.7426 20.9244 10.2866 20.9272 9.87405 21.1047L5.98317 22.7767C5.13691 23.1403 4.73352 24.1389 5.08198 25.003L6.70241 29.018C6.87407 29.4469 7.20251 29.779 7.62592 29.953C7.83019 30.0384 8.04477 30.0802 8.25876 30.0802C8.47963 30.0802 8.70106 30.0355 8.91049 29.945L12.8014 28.2736C13.6471 27.91 14.051 26.9108 13.7026 26.0468ZM12.2097 26.8942L8.31884 28.5656C8.27021 28.5857 8.22615 28.5777 8.19754 28.5656C8.17065 28.5548 8.12087 28.5256 8.09397 28.4574L6.47354 24.4418L6.47297 24.4412C6.42948 24.333 6.47812 24.1979 6.57482 24.1561L10.4663 22.4841C10.4874 22.4755 10.5069 22.4715 10.5252 22.4715C10.5492 22.4715 10.571 22.4772 10.587 22.4841C10.6139 22.495 10.6637 22.5242 10.6911 22.5923L12.3116 26.6091C12.3556 26.7185 12.3081 26.8519 12.2097 26.8942Z" fill="#1E1E1E"/>
<path d="M8.0625 58.4992C7.64767 58.4992 7.31237 58.8348 7.31237 59.2499C7.31237 59.6645 7.64767 60 8.0625 60H21.1793C21.5942 60 21.9295 59.6645 21.9295 59.2499C21.9295 58.8348 21.5942 58.4992 21.1793 58.4992H15.3711V44.4082C17.2942 44.2645 22.429 43.5081 25.7042 39.5268C28.3426 36.3197 29.1121 31.8209 27.9941 26.1562C25.045 11.2292 25.905 0.919588 25.9136 0.816521C25.9319 0.606951 25.8615 0.399099 25.7196 0.244498C25.5777 0.0887522 25.3769 0 25.1669 0H4.07493C3.86493 0 3.6641 0.0887522 3.52219 0.244498C3.38029 0.399672 3.30991 0.606951 3.32822 0.816521C3.3368 0.919588 4.19966 11.2103 1.24717 26.1562C0.12912 31.8209 0.898713 36.3186 3.5365 39.5263C6.81227 43.5081 11.9477 44.2645 13.8708 44.4082V58.4992H8.0625ZM4.87313 1.50135H24.3687C24.3063 2.71353 24.2291 5.23295 24.3773 8.76071H4.86397C5.01274 5.23295 4.9355 2.71353 4.87313 1.50135ZM4.69461 38.5723C2.35607 35.7288 1.69119 31.6491 2.71941 26.4476C3.97422 20.093 4.54813 14.5571 4.79073 10.2621H24.4511C24.6931 14.5571 25.267 20.093 26.5219 26.4476C27.5484 31.6439 26.8863 35.7208 24.5535 38.5637C21.0083 42.8845 14.6919 42.9401 14.6215 42.9401H14.6209C14.6203 42.9401 14.6203 42.9401 14.6192 42.9401C14.5391 42.9401 8.25075 42.8954 4.69461 38.5723Z" fill="#1E1E1E"/>
</g>
</svg>
