<svg width="61" height="60" viewBox="0 0 61 60" fill="none" xmlns="http://www.w3.org/2000/svg">
<g id="Vector">
<path d="M50.8277 9.92053C51.1748 6.72935 49.7869 3.59654 47.1899 1.70927C43.914 -0.651499 39.4708 -0.558623 36.2965 1.93697C32.6322 4.83105 31.8062 10.054 34.3987 13.9373C34.6549 14.3307 34.6025 14.8494 34.2728 15.1836L15.937 33.5077C15.6042 33.8407 15.083 33.8933 14.6904 33.6335C10.8064 31.042 5.58303 31.8678 2.68824 35.531C0.190572 38.7074 0.0980855 43.1533 2.46151 46.4308C4.34819 49.0294 7.48222 50.4187 10.675 50.072C10.261 54.0115 12.4752 57.7575 16.1265 59.2949C19.7777 60.8323 24.0051 59.7985 26.5345 56.7498C29.0638 53.701 29.2989 49.356 27.1131 46.0523C26.8568 45.6589 26.9092 45.1401 27.2389 44.8059L45.5648 26.4819C45.8988 26.1519 46.4177 26.0991 46.8113 26.355C50.6952 28.947 55.919 28.1212 58.8135 24.4575C61.3085 21.2833 61.4013 16.8414 59.0412 13.5658C57.1543 10.9672 54.021 9.57659 50.8277 9.92053ZM57.2543 23.2032C55.0041 26.0554 50.9403 26.7017 47.9161 24.6882C46.7303 23.9067 45.1587 24.0647 44.1524 25.0667L25.8255 43.3937C24.8234 44.3999 24.6653 45.9713 25.447 47.1568C27.2323 49.853 26.9353 53.4215 24.7289 55.7856C22.5224 58.1497 18.9824 58.6924 16.1689 57.0977C13.3555 55.5031 12.003 52.1874 12.8985 49.0803C12.9986 48.7313 12.9014 48.3554 12.6446 48.0987C12.3879 47.842 12.0119 47.7448 11.6629 47.8449C8.55549 48.7401 5.23959 47.3878 3.64473 44.5751C2.04987 41.7624 2.59222 38.2231 4.95618 36.0169C7.32015 33.8106 10.8889 33.513 13.5857 35.2973C14.7712 36.0791 16.3427 35.9215 17.3493 34.9198L35.6772 16.5958C36.6793 15.5896 36.8374 14.0183 36.0557 12.8327C34.2703 10.1367 34.5671 6.56816 36.7733 4.20396C38.9796 1.83975 42.5195 1.29685 45.3331 2.8912C48.1466 4.48556 49.4994 7.80108 48.6043 10.9082C48.5043 11.257 48.6014 11.6326 48.8579 11.8892C49.1144 12.1459 49.4899 12.2433 49.8388 12.1436C52.7607 11.3006 55.8925 12.4425 57.5856 14.9683C59.2786 17.4941 59.1447 20.8244 57.2543 23.2062V23.2032Z" fill="#1E1E1E"/>
<path d="M41.6963 8.97981C42.2479 8.97981 42.6951 8.53268 42.6951 7.98112C42.6951 7.42955 42.2479 6.98242 41.6963 6.98242C41.1446 6.98242 40.6974 7.42955 40.6974 7.98112C40.6974 8.53268 41.1446 8.97981 41.6963 8.97981Z" fill="#1E1E1E"/>
<path d="M51.6846 19.9652C52.2363 19.9652 52.6835 19.518 52.6835 18.9665C52.6835 18.4149 52.2363 17.9678 51.6846 17.9678C51.133 17.9678 50.6858 18.4149 50.6858 18.9665C50.6858 19.518 51.133 19.9652 51.6846 19.9652Z" fill="#1E1E1E"/>
<path d="M9.73298 41.9368C10.2846 41.9368 10.7318 41.4897 10.7318 40.9381C10.7318 40.3866 10.2846 39.9395 9.73298 39.9395C9.18133 39.9395 8.73413 40.3866 8.73413 40.9381C8.73413 41.4897 9.18133 41.9368 9.73298 41.9368Z" fill="#1E1E1E"/>
<path d="M19.7213 52.9222C20.273 52.9222 20.7202 52.4751 20.7202 51.9235C20.7202 51.3719 20.273 50.9248 19.7213 50.9248C19.1697 50.9248 18.7225 51.3719 18.7225 51.9235C18.7225 52.4751 19.1697 52.9222 19.7213 52.9222Z" fill="#1E1E1E"/>
<path d="M30.7088 30.9505C31.2605 30.9505 31.7076 30.5034 31.7076 29.9518C31.7076 29.4003 31.2605 28.9531 30.7088 28.9531C30.1572 28.9531 29.71 29.4003 29.71 29.9518C29.71 30.5034 30.1572 30.9505 30.7088 30.9505Z" fill="#1E1E1E"/>
<path d="M23.7169 37.9417C24.2685 37.9417 24.7157 37.4946 24.7157 36.943C24.7157 36.3915 24.2685 35.9443 23.7169 35.9443C23.1652 35.9443 22.718 36.3915 22.718 36.943C22.718 37.4946 23.1652 37.9417 23.7169 37.9417Z" fill="#1E1E1E"/>
<path d="M37.7007 23.9603C38.2524 23.9603 38.6996 23.5131 38.6996 22.9616C38.6996 22.41 38.2524 21.9629 37.7007 21.9629C37.1491 21.9629 36.7019 22.41 36.7019 22.9616C36.7019 23.5131 37.1491 23.9603 37.7007 23.9603Z" fill="#1E1E1E"/>
</g>
</svg>
