<svg width="61" height="60" viewBox="0 0 61 60" fill="none" xmlns="http://www.w3.org/2000/svg">
<g id="Vector">
<path d="M30.2501 0C13.7077 0 0.25 13.4583 0.25 30.0001C0.25 46.542 13.7077 60.0002 30.2501 60.0002C46.792 60.0002 60.2502 46.542 60.2502 30.0001C60.2502 13.4583 46.792 0 30.2501 0ZM30.2501 58.4999C14.5351 58.4999 1.74975 45.7146 1.74975 30.0001C1.74975 14.2851 14.5351 1.49975 30.2501 1.49975C45.9646 1.49975 58.7499 14.2851 58.7499 30.0001C58.7499 45.7146 45.9646 58.4999 30.2501 58.4999Z" fill="#1E1E1E"/>
<path d="M30.2501 5.53837C16.7615 5.53837 5.78837 16.5115 5.78837 30.0001C5.78837 43.4881 16.7615 54.4613 30.2501 54.4613C43.7381 54.4613 54.7119 43.4881 54.7119 30.0001C54.7119 16.5115 43.7381 5.53837 30.2501 5.53837ZM30.2501 52.9615C17.5889 52.9615 7.28812 42.6607 7.28812 30.0001C7.28812 17.3395 17.5889 7.03869 30.2501 7.03869C42.9113 7.03869 53.2115 17.3395 53.2115 30.0001C53.2115 42.6607 42.9113 52.9615 30.2501 52.9615Z" fill="#1E1E1E"/>
<path d="M37.841 26.8461C37.6436 26.9663 37.4536 27.0939 37.2716 27.2284C35.2563 28.7144 33.1546 29.603 31.0255 29.8691C29.7037 30.0339 28.4517 30.4722 27.3044 31.1703C25.1071 32.5087 23.5816 34.627 23.0089 37.1355C22.4367 39.6429 22.8927 42.2155 24.294 44.3773C26.069 47.1165 29.1681 48.6454 32.3003 48.6454C33.8579 48.6454 35.424 48.2666 36.8391 47.4718C38.3903 46.5986 39.6566 45.3163 40.5012 43.7622C41.3423 42.2132 42.5617 41.1432 43.9355 40.7484C44.9575 40.4549 45.8999 39.9542 46.7376 39.2612C49.3509 37.1 50.2138 33.2914 48.7895 30.205C47.8683 28.208 46.1437 26.6985 44.0574 26.0628C41.9706 25.4259 39.7035 25.7114 37.841 26.8461ZM47.4277 30.8332C48.5715 33.312 47.8792 36.3705 45.7815 38.106C45.104 38.6662 44.3435 39.0701 43.5213 39.307C41.7583 39.8129 40.2173 41.1409 39.1828 43.0458C38.4738 44.3516 37.409 45.4302 36.1038 46.1637C32.5212 48.1796 27.7879 47.0106 25.5529 43.5614C24.3736 41.7423 23.9902 39.5788 24.4714 37.4691C24.9532 35.3594 26.2361 33.577 28.0843 32.452C29.0496 31.8638 30.1013 31.4964 31.2114 31.3574C33.5987 31.0593 35.9373 30.0762 38.162 28.4357C38.309 28.327 38.4618 28.2246 38.6209 28.1279C39.5948 27.5345 40.7054 27.2301 41.8252 27.2301C42.4278 27.2301 43.0332 27.3176 43.6202 27.4973C45.322 28.0157 46.6741 29.2007 47.4277 30.8332Z" fill="#1E1E1E"/>
<path d="M30.6684 35.4733C30.4647 35.1139 30.0092 34.9834 29.647 35.1883C29.2859 35.3914 29.1578 35.8492 29.3615 36.2103L33.1472 42.9325C33.2851 43.1763 33.5391 43.3142 33.8018 43.3142C33.926 43.3142 34.0524 43.2833 34.1686 43.2175C34.5296 43.0143 34.6578 42.5566 34.4541 42.1955L30.6684 35.4733Z" fill="#1E1E1E"/>
<path d="M35.848 34.0885C35.6449 33.7286 35.1888 33.5981 34.8266 33.8036C34.4655 34.0061 34.3374 34.4639 34.5411 34.8249L36.9604 39.1193C37.0977 39.3631 37.3517 39.501 37.6144 39.501C37.7386 39.501 37.865 39.4701 37.9812 39.4043C38.3428 39.2012 38.4704 38.7434 38.2667 38.3823L35.848 34.0885Z" fill="#1E1E1E"/>
<path d="M40.068 31.4507C39.8649 31.0913 39.4088 30.9608 39.0466 31.1663C38.6856 31.3688 38.558 31.8266 38.7617 32.1877L41.1804 36.482C41.3183 36.7258 41.5723 36.8637 41.8344 36.8637C41.9591 36.8637 42.085 36.8328 42.2018 36.767C42.5628 36.5639 42.6904 36.1061 42.4867 35.745L40.068 31.4507Z" fill="#1E1E1E"/>
<path d="M17.1054 31.0392C15.2212 31.0392 13.6882 32.5722 13.6882 34.457C13.6882 36.3407 15.2212 37.8736 17.1054 37.8736C18.9891 37.8736 20.5221 36.3407 20.5221 34.457C20.5221 32.5722 18.9891 31.0392 17.1054 31.0392ZM17.1054 36.3733C16.048 36.3733 15.188 35.5139 15.188 34.457C15.188 33.399 16.048 32.5396 17.1054 32.5396C18.1623 32.5396 19.0223 33.399 19.0223 34.457C19.0223 35.5139 18.1623 36.3733 17.1054 36.3733Z" fill="#1E1E1E"/>
<path d="M17.855 26.4788C17.855 24.5939 16.3221 23.061 14.4384 23.061C12.5541 23.061 11.0212 24.5939 11.0212 26.4788C11.0212 28.3625 12.5541 29.8954 14.4384 29.8954C16.3221 29.8954 17.855 28.3625 17.855 26.4788ZM12.5209 26.4788C12.5209 25.4208 13.381 24.5613 14.4384 24.5613C15.4952 24.5613 16.3553 25.4208 16.3553 26.4788C16.3553 27.5356 15.4952 28.3951 14.4384 28.3951C13.381 28.3951 12.5209 27.5356 12.5209 26.4788Z" fill="#1E1E1E"/>
<path d="M27.2638 25.2274C27.2638 23.3437 25.7308 21.8107 23.8466 21.8107C21.9623 21.8107 20.4294 23.3437 20.4294 25.2274C20.4294 27.1122 21.9623 28.6451 23.8466 28.6451C25.7308 28.6451 27.2638 27.1122 27.2638 25.2274ZM21.9291 25.2274C21.9291 24.1705 22.7891 23.311 23.8466 23.311C24.9034 23.311 25.7635 24.1705 25.7635 25.2274C25.7635 26.2854 24.9034 27.1448 23.8466 27.1448C22.7891 27.1448 21.9291 26.2854 21.9291 25.2274Z" fill="#1E1E1E"/>
<path d="M29.5 23.2613C29.5 25.145 31.0329 26.6779 32.9172 26.6779C34.8014 26.6779 36.3344 25.145 36.3344 23.2613C36.3344 21.3764 34.8014 19.8435 32.9172 19.8435C31.0329 19.8435 29.5 21.3764 29.5 23.2613ZM32.9172 21.3432C33.9746 21.3432 34.834 22.2033 34.834 23.2613C34.834 24.3181 33.9746 25.1776 32.9172 25.1776C31.8597 25.1776 31.0003 24.3181 31.0003 23.2613C31.0003 22.2033 31.8597 21.3432 32.9172 21.3432Z" fill="#1E1E1E"/>
<path d="M37.6132 18.6768C39.4975 18.6768 41.0304 17.1438 41.0304 15.2596C41.0304 13.3753 39.4975 11.8423 37.6132 11.8423C35.729 11.8423 34.196 13.3753 34.196 15.2596C34.196 17.1438 35.729 18.6768 37.6132 18.6768ZM37.6132 13.3427C38.6707 13.3427 39.5307 14.2021 39.5307 15.2596C39.5307 16.317 38.6707 17.177 37.6132 17.177C36.5564 17.177 35.6964 16.317 35.6964 15.2596C35.6964 14.2021 36.5564 13.3427 37.6132 13.3427Z" fill="#1E1E1E"/>
<path d="M18.5125 21.0606C20.3962 21.0606 21.9291 19.5276 21.9291 17.6434C21.9291 15.7597 20.3962 14.2267 18.5125 14.2267C16.6282 14.2267 15.0953 15.7597 15.0953 17.6434C15.0953 19.5276 16.6282 21.0606 18.5125 21.0606ZM18.5125 15.7265C19.5693 15.7265 20.4294 16.5865 20.4294 17.6434C20.4294 18.7008 19.5693 19.5608 18.5125 19.5608C17.455 19.5608 16.595 18.7008 16.595 17.6434C16.595 16.5865 17.455 15.7265 18.5125 15.7265Z" fill="#1E1E1E"/>
<path d="M28.6411 17.6702C30.5253 17.6702 32.0583 16.1373 32.0583 14.2536C32.0583 12.3693 30.5253 10.8364 28.6411 10.8364C26.7568 10.8364 25.2239 12.3693 25.2239 14.2536C25.2239 16.1373 26.7568 17.6702 28.6411 17.6702ZM28.6411 12.3362C29.6985 12.3362 30.5585 13.1962 30.5585 14.2536C30.5585 15.3105 29.6985 16.1705 28.6411 16.1705C27.5842 16.1705 26.7242 15.3105 26.7242 14.2536C26.7242 13.1962 27.5842 12.3362 28.6411 12.3362Z" fill="#1E1E1E"/>
</g>
</svg>
