<svg width="61" height="60" viewBox="0 0 61 60" fill="none" xmlns="http://www.w3.org/2000/svg">
<path id="Vector" d="M59.5 50.0852H58.5325V32.8397C58.5325 32.425 58.197 32.0895 57.7825 32.0895H54.9084V31.0462C54.9084 30.0506 54.1028 29.241 53.1133 29.241H49.8049C48.8154 29.241 48.0098 30.0506 48.0098 31.0462V32.0895H43.9961V31.0462C43.9961 30.0506 43.1904 29.241 42.2002 29.241H38.8926C37.9023 29.241 37.0967 30.0506 37.0967 31.0462V32.0895H34.2227C33.8081 32.0895 33.4727 32.425 33.4727 32.8397V50.0852H30.1255V35.1021C30.1255 33.8852 29.136 32.8954 27.9194 32.8954H25.8306V21.4897C25.8306 21.075 25.4951 20.7395 25.0806 20.7395H22.3142V9.2151H24.5151C24.825 9.2151 25.1025 9.02462 25.2146 8.73596C25.3267 8.44657 25.249 8.11908 25.0205 7.91028L16.5522 0.195614C16.2651 -0.0652047 15.8279 -0.0652047 15.5422 0.195614L7.07324 7.91028C6.84399 8.11908 6.76636 8.44657 6.87842 8.73596C6.99048 9.02462 7.26807 9.2151 7.57788 9.2151H9.77881V20.7395H7.01245C6.5979 20.7395 6.26245 21.075 6.26245 21.4897V32.8954H4.17358C2.95703 32.8954 1.96753 33.8852 1.96753 35.1021V50.0852H1C0.585449 50.0852 0.25 50.4208 0.25 50.8354V59.2498C0.25 59.6645 0.585449 60 1 60H59.5C59.9146 60 60.25 59.6645 60.25 59.2498V50.8354C60.25 50.4208 59.9146 50.0852 59.5 50.0852ZM37.8467 33.5899C38.2612 33.5899 38.5967 33.2544 38.5967 32.8397V31.0462C38.5967 30.8784 38.7292 30.7414 38.8926 30.7414H42.2002C42.3635 30.7414 42.4961 30.8784 42.4961 31.0462V32.8397C42.4961 33.2544 42.8315 33.5899 43.2461 33.5899H48.7598C49.1743 33.5899 49.5098 33.2544 49.5098 32.8397V31.0462C49.5098 30.8784 49.6423 30.7414 49.8049 30.7414H53.1133C53.2759 30.7414 53.4084 30.8784 53.4084 31.0462V32.8397C53.4084 33.2544 53.7439 33.5899 54.1584 33.5899H57.0325V40.9588H34.9727V33.5899H37.8467ZM34.9727 42.4592H57.0325V50.0852H34.9727V42.4592ZM16.0469 1.76492L22.5779 7.71466H9.51514L16.0469 1.76492ZM11.2788 9.2151H20.8142V20.7395H11.2788V9.2151ZM7.76245 22.2399H24.3306V32.8954H7.76245V22.2399ZM3.46753 35.1021C3.46753 34.7123 3.78394 34.3958 4.17358 34.3958H27.9194C28.3091 34.3958 28.6255 34.7123 28.6255 35.1021V50.0852H23.0569V45.1612C23.0569 41.3551 20.1821 38.1879 16.512 37.9491C14.5513 37.8216 12.6814 38.4898 11.2539 39.8298C9.84473 41.1507 9.03687 43.016 9.03687 44.9465V50.0852H3.46753V35.1021ZM21.5569 50.0852H10.5369V44.9465C10.5369 43.4065 11.1558 41.9779 12.2793 40.9243C13.4028 39.8708 14.8699 39.3492 16.4153 39.4466C19.2981 39.6334 21.5569 42.1442 21.5569 45.1612V50.0852ZM58.75 58.4996H1.75V51.5857H58.75V58.4996Z" fill="#1E1E1E"/>
</svg>
